<svg width="48" height="48" viewBox="0 0 48 48" fill="none" xmlns="http://www.w3.org/2000/svg">
<g opacity="0.6" clip-path="url(#clip0_137_116)">
<path d="M48 1.25245C47.645 1.24452 47.3122 1.23195 47.0285 1.212C45.9715 1.21344 44.9857 1.02583 44.0023 0.838683C42.9317 0.634933 41.8639 0.431724 40.7102 0.473582C39.7521 0.508316 38.7949 0.491093 37.8403 0.37083C36.881 0.249985 35.9071 0.224347 34.9272 0.247568C33.8773 0.272406 32.8207 0.352994 31.7676 0.433308C30.5276 0.527876 29.2927 0.622065 28.0796 0.624419C26.6914 0.627156 25.3035 0.61849 23.9163 0.609827C21.43 0.594301 18.9457 0.578788 16.4651 0.628967C13.8875 0.68102 11.3137 0.803316 8.7455 1.0749C7.50531 1.20426 6.26167 1.26009 5.01752 1.27992C3.86413 1.29838 2.7103 1.28603 1.55841 1.2737C1.03847 1.26814 0.518925 1.26257 0 1.25986V0.820233C0.519105 0.822346 1.03883 0.827282 1.55894 0.832223C2.70881 0.843146 3.86062 0.854088 5.01197 0.834567C6.24629 0.813765 7.48001 0.757938 8.71029 0.628676C11.2884 0.361542 13.8718 0.241665 16.4589 0.197158C18.9456 0.154353 21.4357 0.180443 23.928 0.206556C25.3113 0.22105 26.6953 0.23555 28.0796 0.238279C29.2914 0.240633 30.5254 0.151293 31.7644 0.0615941C32.0531 0.0406973 32.342 0.019781 32.631 0H37.6732C37.7401 0.00777267 37.8069 0.0159839 37.8736 0.0246488C38.814 0.146847 39.7572 0.167456 40.7015 0.136301C41.8599 0.098065 42.912 0.283207 43.9681 0.469052C44.9323 0.638729 45.8999 0.808992 46.9548 0.810377C47.1092 0.810509 47.3206 0.81335 47.567 0.816663C47.7021 0.818478 47.8476 0.820434 48 0.822163V1.25245Z" fill="#B35920"/>
<path d="M0 2.16938V1.93242C1.76345 1.8882 3.7494 1.8826 5.79404 1.87683C7.85919 1.871 9.98419 1.86501 12.0003 1.81889C16.4172 1.7206 20.8171 1.70127 25.2157 1.76473C29.6144 1.82811 34.0113 1.97427 38.4226 2.18028C39.5243 2.23204 40.5622 2.19953 41.6058 2.16685C42.5081 2.1386 43.4147 2.11021 44.3704 2.13603C45.0972 2.15564 45.7069 2.09494 46.323 2.0336C46.8514 1.98101 47.3844 1.92794 48 1.92468V2.17308C47.3607 2.17733 46.8332 2.22819 46.2962 2.27996C45.714 2.33609 45.1208 2.39329 44.3622 2.39329C43.4047 2.36969 42.4965 2.40045 41.5926 2.43105C40.5482 2.46643 39.5095 2.5016 38.4069 2.45253C33.9989 2.25535 29.6052 2.12687 25.2104 2.06341C20.816 1.99989 16.4204 2.00139 12.0075 2.09053C9.99427 2.12993 7.8726 2.13011 5.81037 2.1303C3.75972 2.13049 1.76788 2.13066 0 2.16938Z" fill="#B35920"/>
<path d="M48 4.08271C46.6187 4.08271 45.4187 4.07861 44.3293 4.07489C43.5545 4.07224 42.8357 4.06979 42.1472 4.06914C39.6637 4.06577 37.1829 4.0394 34.7038 3.98366C32.2236 3.92785 29.7449 3.84274 27.2669 3.7228C26.5886 3.68991 25.9006 3.67995 25.2109 3.68534C24.1809 3.69344 23.1469 3.73584 22.136 3.78723C21.2375 3.83293 20.3129 3.84739 19.3889 3.83772C18.4632 3.82813 17.538 3.79427 16.6404 3.74303C15.9185 3.7019 15.1952 3.69471 14.4711 3.70474C13.7335 3.71505 12.9951 3.74337 12.2572 3.77167L12.2571 3.77168L12.2566 3.77169C11.319 3.80767 10.3821 3.84361 9.44803 3.84252C9.10353 3.84261 8.75708 3.8422 8.40913 3.84179C6.70908 3.83979 4.97304 3.83774 3.25067 3.89346C2.15741 3.92882 1.06964 3.9875 0 4.08396V4.42794C1.07399 4.33099 2.16647 4.2728 3.26453 4.238C4.98195 4.18356 6.71296 4.1865 8.40816 4.18939H8.40853C8.75669 4.18998 9.10332 4.19057 9.44803 4.19066C10.3842 4.18956 11.3231 4.15135 12.2628 4.11311L12.2629 4.1131L12.2632 4.11308C13.0013 4.08304 13.7397 4.05299 14.4776 4.0409C15.1917 4.02914 15.9052 4.0343 16.6172 4.07312C17.5214 4.12226 18.453 4.15387 19.3852 4.16084C20.3176 4.16781 21.2504 4.1502 22.1567 4.1012C23.1619 4.04689 24.1901 4.00149 25.2146 3.99026C25.8971 3.98284 26.5779 3.99048 27.2493 4.02097C29.7309 4.1338 32.2129 4.21148 34.6965 4.26033C37.1781 4.3091 39.6613 4.3291 42.1472 4.32573C43.8008 4.32423 46.3185 4.37347 48 4.41609V4.08271Z" fill="#B35920"/>
<path d="M48 5.35636C47.0744 5.35463 45.9424 5.24909 44.8194 5.14439C43.8019 5.04951 42.7917 4.95532 41.9489 4.93966C40.1759 4.90657 38.4025 4.85683 36.6377 4.78833C34.8913 4.72051 33.1419 4.69652 31.3916 4.69294C30.04 4.69019 28.688 4.69941 27.3365 4.70861L27.3357 4.70862L27.3345 4.70863H27.3344C26.0652 4.71728 24.7963 4.72593 23.5287 4.72466C22.3702 4.726 21.2108 4.72105 20.0509 4.71611L20.05 4.7161H20.036C18.4089 4.70919 16.7811 4.70228 15.1539 4.71248C13.29 4.72409 11.4273 4.75863 9.56746 4.83874C8.19023 4.8985 6.81449 4.98295 5.43902 5.06739C4.10871 5.14907 2.77862 5.23073 1.44779 5.29C0.965309 5.31147 0.482738 5.33001 0 5.34454V5.64622C0.486003 5.63391 0.971866 5.61753 1.45762 5.59816C2.78953 5.54496 4.12072 5.46923 5.4522 5.39349L5.45231 5.39348L5.45379 5.39335C6.82789 5.31517 8.20235 5.23698 9.57812 5.18347C11.4348 5.11071 13.2946 5.08478 15.1551 5.07898C16.7605 5.07391 18.3665 5.08411 19.9717 5.09429H19.9719L19.9723 5.0943H19.9777C21.162 5.10181 22.3458 5.10932 23.5287 5.11071C24.8135 5.10929 26.0995 5.09798 27.386 5.08667H27.3865H27.3924C29.1618 5.07114 30.9321 5.05561 32.7011 5.06563C34.011 5.07308 35.3202 5.09407 36.6278 5.14041C38.3945 5.20311 40.1699 5.24675 41.9446 5.27442C42.7837 5.28745 43.7886 5.37042 44.8015 5.45405C45.9303 5.54727 47.0693 5.64131 48 5.64026V5.35636Z" fill="#B35920"/>
<path d="M48 7.4058C47.7384 7.4218 47.4647 7.43421 47.1304 7.43421C44.2137 7.42982 42.8144 7.27516 40.5397 7.02376L40.5396 7.02375L40.5393 7.02372L40.5383 7.02361C39.763 6.93792 38.886 6.841 37.8125 6.73496C35.3052 6.48729 33.2281 6.37223 32.2512 6.3704C29.4722 6.36478 26.6927 6.42874 23.9143 6.53904C19.7478 6.70449 15.5836 6.97365 11.4269 7.26507C10.7478 7.31316 10.0665 7.32293 9.38427 7.31432C8.65508 7.30515 7.92489 7.27443 7.19533 7.24373C6.32262 7.20701 5.45076 7.17033 4.58271 7.17063C4.15419 7.17074 3.7271 7.18206 3.30092 7.20025C2.66133 7.22749 2.02372 7.27012 1.38633 7.31272C0.924356 7.34361 0.46243 7.37449 0 7.3995V7.84099C0.468067 7.81635 0.935549 7.78562 1.40315 7.75488C2.4597 7.68542 3.51686 7.61593 4.58271 7.61648C5.43959 7.61678 6.30009 7.65395 7.16151 7.69114C7.90091 7.72307 8.641 7.75502 9.38007 7.76373C10.0717 7.77196 10.7626 7.75929 11.451 7.70888C15.6037 7.40226 19.7639 7.11839 23.9268 6.93698C26.7009 6.81604 29.4761 6.74057 32.2512 6.73496C34.8908 6.7304 36.6174 6.96485 38.9229 7.27791L38.9232 7.27795C40.0405 7.42965 41.2936 7.59981 42.8525 7.77018C44.6405 7.88418 45.8058 7.88515 46.7824 7.88418C47.1558 7.88384 47.5835 7.86614 48 7.84248V7.4058Z" fill="#B35920"/>
<path d="M48 9.35592C47.576 9.35255 47.1653 9.35988 46.7045 9.3721C45.9221 9.39292 45.086 9.27499 44.2538 9.15757L44.2536 9.15756C43.4968 9.05079 42.7431 8.94445 42.0356 8.9433C40.8249 8.94137 39.6154 8.9314 38.4064 8.90209C37.1981 8.87277 35.9903 8.82401 34.7824 8.74468C33.2785 8.64598 31.77 8.60806 30.2593 8.60593C28.4791 8.60353 26.6961 8.6491 24.9149 8.69463C23.181 8.73895 21.4488 8.78323 19.7223 8.78318C17.4587 8.78686 15.1953 8.84491 12.9324 8.92908C11.0523 8.99901 9.17252 9.08671 7.29313 9.1744L7.29201 9.17447L7.29155 9.17449C5.78064 9.24498 4.26998 9.31545 2.75962 9.37666C2.10188 9.40345 1.4343 9.38688 0.764772 9.37027L0.764657 9.37026C0.50991 9.36394 0.254879 9.35762 0 9.35366V9.65194C0.257871 9.65713 0.515896 9.66471 0.773637 9.67229C1.44317 9.69207 2.11076 9.71175 2.7687 9.68804L12.9419 9.28426C15.2017 9.2087 17.4619 9.15674 19.7223 9.16041C21.4761 9.16032 23.2358 9.11592 24.9972 9.07148C26.751 9.02722 28.5064 8.98293 30.2591 8.98229C31.7639 8.98181 33.2668 9.01209 34.765 9.10537C35.9768 9.18083 37.1884 9.22562 38.4005 9.25098C39.6114 9.27632 40.8228 9.28252 42.0356 9.28049C42.7407 9.27939 43.4902 9.37038 44.2428 9.46178C45.0781 9.5632 45.9175 9.66509 46.7045 9.64205C47.1328 9.62957 47.5698 9.63447 48 9.64858V9.35592Z" fill="#B35920"/>
<path d="M48 10.7194L47.1108 10.7103C46.0573 10.709 45.0556 10.5381 44.0555 10.3674H44.0555C42.9574 10.1801 41.8614 9.9931 40.7015 10.0314C39.7572 10.0625 38.814 10.0419 37.8736 9.91966C36.9016 9.79352 35.9147 9.76356 34.9212 9.78324C33.8725 9.80407 32.8167 9.88049 31.7645 9.95662H31.7643C30.5253 10.0464 29.2913 10.1357 28.0796 10.1334C26.6955 10.1306 25.3118 10.1161 23.9288 10.1016H23.928H23.9268C21.435 10.0755 18.9452 10.0495 16.4589 10.0922C13.8718 10.1367 11.2884 10.2566 8.71029 10.5237C7.48 10.653 6.24628 10.7088 5.01197 10.7296C3.86158 10.7491 2.71076 10.7383 1.56188 10.7273H1.56164H1.55542H1.55387H1.55366C1.0353 10.7223 0.517345 10.7174 0 10.7153V11.1549C0.518936 11.1577 1.03849 11.1631 1.55844 11.1687C2.71032 11.1811 3.86414 11.1934 5.01751 11.175C6.26166 11.1552 7.5053 11.0993 8.74549 10.97C11.3137 10.6984 13.8875 10.5761 16.4651 10.524C18.9451 10.4739 21.4288 10.4893 23.9146 10.5049H23.9163C25.3035 10.5135 26.6914 10.5223 28.0796 10.5195C29.2926 10.5172 30.5276 10.4229 31.7676 10.3283H31.7676C32.8208 10.2481 33.8773 10.1674 34.9272 10.1427C35.9071 10.1194 36.881 10.1451 37.8403 10.2659C38.7949 10.3861 39.7521 10.4034 40.7102 10.3687C41.8655 10.3267 43.0376 10.5417 44.2081 10.7564C45.2802 10.953 46.3511 11.1494 47.4064 11.148C47.57 11.1479 47.7716 11.151 48 11.1546V10.7194Z" fill="#B35920"/>
<path d="M48 12.9478V13.2561C46.9789 13.3013 46.6933 13.2878 46.121 13.2609C45.894 13.2501 45.6217 13.2372 45.2405 13.2251C44.2616 13.1939 43.1248 13.2834 41.9808 13.3735C40.713 13.4733 39.4362 13.5738 38.3552 13.5117C33.947 13.257 29.5534 13.0911 25.1585 13.0091C20.7642 12.9271 16.3687 12.929 11.9556 13.0442C10.0781 13.0916 8.13684 13.1163 6.2409 13.1404H6.24027C4.04266 13.1684 1.90597 13.1956 0 13.2564V12.9509C1.89553 12.8823 4.01893 12.8477 6.20329 12.8121H6.2035C8.10904 12.7809 10.061 12.7491 11.9484 12.6933C16.3654 12.5664 20.7654 12.5414 25.164 12.6234C29.5625 12.7052 33.9594 12.894 38.3708 13.1601C39.4507 13.2256 40.7263 13.1285 41.9928 13.0321C43.1356 12.9451 44.2711 12.8587 45.2488 12.8929L45.346 12.8962C46.592 12.9396 46.7665 12.9458 48 12.9478Z" fill="#B35920"/>
<path d="M0 15.6755C0.51852 15.6776 1.03766 15.6825 1.55721 15.6875H1.55749H1.5594C2.7091 15.6984 3.86076 15.7093 5.01197 15.6898C6.24628 15.669 7.48 15.6132 8.71029 15.4839C11.2884 15.2168 13.8718 15.0969 16.4589 15.0524C18.9456 15.0097 21.4356 15.0357 23.9278 15.0618C25.3112 15.0763 26.6952 15.0908 28.0796 15.0936C29.2912 15.0959 30.5251 15.0066 31.7639 14.9168H31.764H31.7644C32.8166 14.8407 33.8724 14.7642 34.9212 14.7434C35.9147 14.7238 36.9016 14.7537 37.8736 14.8799C38.814 15.0021 39.7572 15.0227 40.7015 14.9915C41.8599 14.9533 42.912 15.1385 43.9681 15.3243C44.9322 15.494 45.8999 15.6643 46.9548 15.6656C47.1083 15.6657 47.3181 15.6686 47.5627 15.6719H47.5635H47.5647L47.5653 15.672H47.5678C47.7026 15.6737 47.8478 15.6757 48 15.6774V16.1077C47.645 16.0997 47.3122 16.0872 47.0285 16.0673C45.9715 16.0687 44.9858 15.881 44.0024 15.6939C42.9317 15.4902 41.8639 15.287 40.7102 15.3289C39.7521 15.3636 38.7949 15.3463 37.8403 15.226C36.881 15.1053 35.9071 15.0796 34.9272 15.1029C33.8773 15.1276 32.8207 15.2083 31.7676 15.2885C30.5277 15.3831 29.2926 15.4773 28.0796 15.4797C26.6926 15.4824 25.306 15.4737 23.92 15.4651H23.9197H23.919H23.9148C21.429 15.4495 18.9453 15.4341 16.4651 15.4842C13.8875 15.5363 11.3137 15.6586 8.7455 15.9302C7.50531 16.0595 6.26167 16.1154 5.01753 16.1352C3.86459 16.1536 2.71121 16.1413 1.55978 16.1289H1.55948H1.55614H1.55563H1.55551C1.03653 16.1234 0.517956 16.1178 0 16.1151V15.6755Z" fill="#B35920"/>
<path d="M0 16.7875V17.0244C1.76788 16.9857 3.75972 16.9855 5.81039 16.9853C7.87262 16.9852 9.99427 16.985 12.0075 16.9456C16.4204 16.8564 20.816 16.855 25.2104 16.9184C29.6052 16.9819 33.9989 17.1104 38.4069 17.3076C39.5083 17.3567 40.546 17.3214 41.5892 17.2861H41.5893H41.5926C42.4965 17.2555 43.4047 17.2248 44.3622 17.2483C45.1208 17.2483 45.714 17.1912 46.2962 17.135C46.8331 17.0833 47.3608 17.0324 48 17.0282V16.7797C47.3844 16.783 46.8514 16.8361 46.323 16.8887C45.7069 16.95 45.0972 17.0107 44.3704 16.9911C43.4148 16.9653 42.5084 16.9936 41.6062 17.0219H41.6058H41.6034H41.6033C40.5606 17.0546 39.5235 17.0871 38.4226 17.0354C34.0113 16.8293 29.6144 16.6831 25.2157 16.6198C20.8171 16.5563 16.4172 16.5756 12.0003 16.6739C9.98448 16.72 7.85974 16.726 5.79483 16.7319H5.78974C3.74666 16.7377 1.76229 16.7432 0 16.7875Z" fill="#B35920"/>
<path d="M48 18.9378C46.6184 18.9378 45.4183 18.9337 44.3287 18.9299C43.5541 18.9274 42.8355 18.9249 42.1472 18.9242C39.6637 18.9208 37.1829 18.8945 34.7038 18.8387C32.2236 18.783 29.7449 18.6978 27.2669 18.5779C26.5886 18.545 25.9006 18.535 25.2109 18.5405C24.1809 18.5485 23.1469 18.591 22.136 18.6423C21.2375 18.688 20.3129 18.7025 19.3889 18.6928C18.4632 18.6832 17.538 18.6493 16.6404 18.5981C15.9185 18.557 15.1952 18.5498 14.4711 18.5599C13.7349 18.5701 12.998 18.5985 12.2616 18.6268H12.2611H12.2567C11.3191 18.6628 10.3821 18.6987 9.44803 18.6976C9.10351 18.6977 8.75706 18.6973 8.40909 18.6969C6.70906 18.6948 4.97303 18.6928 3.25067 18.7485C2.15741 18.7839 1.06964 18.8426 0 18.9391V19.283C1.07399 19.1861 2.16647 19.1279 3.26453 19.0931C4.98203 19.0386 6.71312 19.0416 8.40837 19.0445H8.40869H8.41402C8.76033 19.0451 9.10514 19.0456 9.44803 19.0457C10.3841 19.0447 11.3229 19.0065 12.2625 18.9683L12.2628 18.9682H12.2629C13.0011 18.9381 13.7396 18.9081 14.4776 18.896C15.1917 18.8843 15.9052 18.8894 16.6172 18.9282C17.5214 18.9774 18.453 19.009 19.3852 19.016C20.3176 19.0229 21.2504 19.0053 22.1567 18.9563C23.1619 18.902 24.1901 18.8566 25.2146 18.8454C25.8971 18.8379 26.5779 18.8456 27.2493 18.8761C29.7309 18.9889 32.2129 19.0666 34.6965 19.1154C37.1781 19.1642 39.6613 19.1842 42.1472 19.1808C43.8008 19.1794 46.3185 19.2286 48 19.2712V18.9378Z" fill="#B35920"/>
<path d="M48 20.2115C47.0744 20.2097 45.9425 20.1042 44.8195 19.9995H44.8192C43.8017 19.9047 42.7916 19.8105 41.9489 19.7948C40.1759 19.7617 38.4025 19.712 36.6377 19.6434C34.8913 19.5757 33.1419 19.5517 31.3916 19.5481C30.0398 19.5453 28.6875 19.5545 27.3357 19.5638H27.3205H27.3194H27.3193C26.0551 19.5724 24.7912 19.581 23.5287 19.5798C22.3655 19.5811 21.2014 19.5762 20.0368 19.5712C18.4094 19.5643 16.7814 19.5574 15.1539 19.5676C13.29 19.5792 11.4273 19.6138 9.56746 19.6939C8.19021 19.7536 6.81444 19.8381 5.43897 19.9225C4.10866 20.0042 2.77862 20.0859 1.44779 20.1451C0.965309 20.1666 0.482738 20.1852 0 20.1997V20.5014C0.486003 20.4891 0.971866 20.4727 1.45762 20.4533C2.78646 20.4002 4.11458 20.3247 5.44299 20.249H5.44375L5.4538 20.2485H5.45563H5.45578C6.82924 20.1703 8.20299 20.0921 9.57812 20.0386C11.4348 19.9659 13.2946 19.94 15.1551 19.9341C16.7607 19.929 18.367 19.9392 19.9725 19.9495H19.9729H19.9779H19.9793C21.1631 19.957 22.3464 19.9645 23.5287 19.9659C24.8156 19.9645 26.1037 19.9531 27.3924 19.9418C29.1617 19.9263 30.9321 19.9108 32.7011 19.9208C34.011 19.9283 35.3202 19.9492 36.6278 19.9956C38.3945 20.0583 40.1699 20.1019 41.9446 20.1296C42.7837 20.1426 43.7886 20.2256 44.8015 20.3092H44.8016C45.9304 20.4024 47.0694 20.4965 48 20.4954V20.2115Z" fill="#B35920"/>
<path d="M48 22.2609C47.7384 22.2769 47.4647 22.2893 47.1304 22.2893C44.2137 22.2849 42.8144 22.1302 40.5397 21.8789L40.5395 21.8788H40.5389L40.5368 21.8785C39.7619 21.7929 38.8852 21.696 37.8125 21.59C35.3052 21.3423 33.2281 21.2273 32.2512 21.2255C29.4722 21.2198 26.6927 21.2838 23.9143 21.3941C19.7478 21.5596 15.5836 21.8288 11.4269 22.1201C10.7478 22.1682 10.0665 22.178 9.38427 22.1694C8.65507 22.1603 7.92487 22.1295 7.1953 22.0988C6.32257 22.062 5.45076 22.0254 4.58271 22.0258C4.15419 22.0259 3.7271 22.0372 3.30092 22.0553C2.66145 22.0826 2.02396 22.1252 1.38668 22.1677L1.38626 22.1678H1.38612H1.38584H1.38554H1.38543C0.92374 22.1988 0.462155 22.2296 0 22.2546V22.696C0.468084 22.6715 0.935586 22.6407 1.4032 22.6099C2.45973 22.5405 3.5169 22.471 4.58271 22.4716C5.43956 22.4719 6.30004 22.509 7.16146 22.5462L7.16202 22.5463C7.90125 22.5781 8.64116 22.6101 9.38007 22.6188C10.0717 22.627 10.7626 22.6143 11.451 22.5639C15.6037 22.2573 19.7639 21.9734 23.9268 21.7921C26.7009 21.6711 29.4761 21.5957 32.2512 21.59C34.8908 21.5855 36.6175 21.8199 38.923 22.133L38.9232 22.1331H38.9236L38.9244 22.1332L38.9257 22.1334C40.0423 22.285 41.2948 22.4551 42.8525 22.6253C44.6405 22.7392 45.8058 22.7402 46.7824 22.7392C47.1558 22.7389 47.5835 22.7212 48 22.6976V22.2609Z" fill="#B35920"/>
<path d="M48 24.211C47.576 24.2076 47.1653 24.2149 46.7045 24.2272C45.9221 24.248 45.086 24.1301 44.2538 24.0126C43.4969 23.9059 42.7431 23.7995 42.0356 23.7984C40.8249 23.7965 39.6154 23.7865 38.4064 23.7572C37.1981 23.7278 35.9903 23.679 34.7824 23.5997C33.2785 23.5011 31.77 23.4631 30.2593 23.461C28.4792 23.4586 26.6964 23.5041 24.9152 23.5496L24.9148 23.5497H24.914H24.9139C23.1804 23.594 21.4485 23.6382 19.7223 23.6382C17.4587 23.6419 15.1953 23.7 12.9324 23.7842C11.0522 23.8541 9.17232 23.9418 7.29285 24.0294L7.28983 24.0296H7.28898H7.28883C5.77883 24.1001 4.26908 24.1706 2.75962 24.2317C2.10201 24.2585 1.43456 24.242 0.765149 24.2254H0.764719C0.509953 24.219 0.254901 24.2127 0 24.2088V24.507C0.257871 24.5121 0.515896 24.5198 0.773637 24.5274C1.44317 24.5472 2.11076 24.5669 2.7687 24.543L12.9419 24.1394C15.2017 24.0638 17.4619 24.0118 19.7223 24.0155C21.4761 24.0154 23.2358 23.971 24.9972 23.9265H24.9983H24.9985C26.7519 23.8823 28.5069 23.838 30.2591 23.8373C31.7639 23.8369 33.2668 23.8672 34.765 23.9604C35.9768 24.0359 37.1884 24.0807 38.4005 24.1061C39.6114 24.1314 40.8228 24.1375 42.0356 24.1355C42.7407 24.1345 43.4902 24.2255 44.2428 24.3169C45.0781 24.4182 45.9175 24.5202 46.7045 24.4972C47.1328 24.4847 47.5698 24.4895 48 24.5037V24.211Z" fill="#B35920"/>
<path d="M48 25.5753L47.1108 25.5661C46.0572 25.5648 45.0555 25.3938 44.0555 25.2232C42.9573 25.0358 41.8614 24.8488 40.7015 24.8871C39.7572 24.9183 38.814 24.8977 37.8736 24.7755C36.9016 24.6493 35.9147 24.6194 34.9212 24.6391C33.8724 24.6598 32.8166 24.7362 31.7644 24.8125H31.7633H31.7632C30.5246 24.9021 29.291 24.9915 28.0796 24.9891C26.6952 24.9864 25.3112 24.9719 23.9278 24.9574C21.4356 24.9313 18.9456 24.9052 16.4589 24.948C13.8718 24.9925 11.2884 25.1124 8.71029 25.3795C7.48 25.5088 6.24628 25.5646 5.01197 25.5854C3.86076 25.6049 2.7091 25.594 1.5594 25.583H1.55437C1.03577 25.5781 0.517582 25.5733 0 25.5711V26.0107C0.516846 26.0134 1.0343 26.019 1.55217 26.0245H1.55272H1.56145C2.71233 26.0369 3.86514 26.0492 5.01751 26.0308C6.26166 26.0109 7.5053 25.9551 8.74549 25.8257C11.3137 25.5541 13.8875 25.4318 16.4651 25.3798C18.9449 25.3296 21.4283 25.3452 23.9138 25.3607H23.9253C25.3095 25.3693 26.6943 25.378 28.0796 25.3753C29.2926 25.3729 30.5276 25.2787 31.7676 25.1842C32.8207 25.1038 33.8773 25.0233 34.9272 24.9984C35.9071 24.9752 36.881 25.0008 37.8403 25.1217C38.7949 25.242 39.7521 25.2591 40.7102 25.2245C41.8654 25.1825 43.0376 25.3975 44.2081 25.6121C45.2802 25.8088 46.3511 26.0053 47.4064 26.0038C47.57 26.0036 47.7715 26.0068 48 26.0104V25.5753Z" fill="#B35920"/>
<path d="M48 27.8029V28.1113C46.9789 28.1564 46.6933 28.143 46.121 28.1159C45.894 28.1052 45.6217 28.0924 45.2405 28.0802C44.2616 28.0491 43.1249 28.1385 41.9809 28.2286H41.9807H41.9806C40.7129 28.3284 39.4362 28.4289 38.3552 28.3667C33.947 28.1121 29.5534 27.9462 25.1585 27.8643C20.7642 27.7822 16.3687 27.7841 11.9556 27.8992C10.0778 27.9467 8.13628 27.9714 6.24011 27.9955H6.23975C4.04231 28.0234 1.90582 28.0506 0 28.1116V27.8059C1.89504 27.7374 4.01785 27.7028 6.2016 27.6672H6.20318H6.2047C8.10988 27.6361 10.0614 27.6042 11.9484 27.5484C16.3654 27.4215 20.7654 27.3966 25.164 27.4784C29.5625 27.5603 33.9594 27.7491 38.3708 28.0152C39.4506 28.0806 40.7263 27.9836 41.9928 27.8872C43.1356 27.8002 44.2711 27.7138 45.2488 27.7479L45.346 27.7514H45.3461C46.592 27.7948 46.7665 27.8009 48 27.8029Z" fill="#B35920"/>
<path d="M0 30.7152C0.518445 30.7174 1.03751 30.7224 1.55698 30.7272H1.5594C2.7091 30.7382 3.86076 30.7491 5.01197 30.7296C6.24628 30.7088 7.48 30.6529 8.71029 30.5237C11.2884 30.2566 13.8718 30.1368 16.4589 30.0922C18.9456 30.0494 21.4356 30.0755 23.9278 30.1016C25.3112 30.1161 26.6952 30.1306 28.0796 30.1333C29.2912 30.1357 30.5251 30.0463 31.764 29.9567H31.7641H31.7644C32.8166 29.8804 33.8724 29.804 34.9212 29.7833C35.9147 29.7635 36.9016 29.7936 37.8736 29.9197C38.814 30.0419 39.7572 30.0625 40.7015 30.0313C41.8599 29.9931 42.912 30.1782 43.9681 30.3641C44.9322 30.5337 45.8999 30.704 46.9548 30.7055C47.1091 30.7056 47.3203 30.7084 47.5665 30.7117H47.567H47.5676C47.7025 30.7135 47.8477 30.7154 48 30.7172V31.1475C47.645 31.1396 47.3122 31.127 47.0285 31.107C45.9715 31.1085 44.9858 30.9209 44.0024 30.7338C42.9317 30.53 41.8639 30.3267 40.7102 30.3686C39.7521 30.4033 38.7949 30.3862 37.8403 30.2659C36.881 30.145 35.9071 30.1194 34.9272 30.1426C33.8773 30.1675 32.8207 30.248 31.7676 30.3284C30.5277 30.4229 29.2926 30.5171 28.0796 30.5195C26.6927 30.5222 25.3063 30.5135 23.9204 30.5049H23.9148C21.4289 30.4894 18.9452 30.4738 16.4651 30.524C13.8875 30.576 11.3137 30.6984 8.7455 30.9699C7.50531 31.0993 6.26167 31.1551 5.01753 31.175C3.8645 31.1934 2.71102 31.181 1.5595 31.1688H1.55671H1.5562C1.03699 31.1632 0.518187 31.1576 0 31.1549V30.7152Z" fill="#B35920"/>
<path d="M0 31.8273V32.0643C1.76788 32.0255 3.75972 32.0253 5.81039 32.0252C7.87262 32.025 9.99427 32.0248 12.0075 31.9854C16.4204 31.8963 20.816 31.8947 25.2104 31.9583C29.6052 32.0217 33.9989 32.1502 38.4069 32.3474C39.5084 32.3964 40.546 32.3613 41.5893 32.326L41.5895 32.3259H41.5926C42.4965 32.2953 43.4047 32.2645 44.3622 32.2881C45.1208 32.2881 45.714 32.2309 46.2962 32.1749C46.8331 32.123 47.3608 32.0721 48 32.0679V31.8196C47.3844 31.8228 46.8514 31.8758 46.323 31.9284C45.7069 31.9898 45.0972 32.0505 44.3704 32.0309C43.4148 32.005 42.5084 32.0335 41.6062 32.0617H41.6058H41.6034C40.5606 32.0944 39.5235 32.1269 38.4226 32.0751C34.0113 31.8691 29.6144 31.723 25.2157 31.6595C20.8171 31.5961 16.4172 31.6155 12.0003 31.7138C9.98448 31.7599 7.85974 31.7659 5.79483 31.7717H5.78988C3.74676 31.7774 1.76232 31.7831 0 31.8273Z" fill="#B35920"/>
<path d="M48 33.9776C46.6184 33.9776 45.4183 33.9735 44.3287 33.9698C43.5541 33.9671 42.8355 33.9647 42.1472 33.964C39.6637 33.9607 37.1829 33.9343 34.7038 33.8786C32.2236 33.8227 29.7449 33.7377 27.2669 33.6177C26.5886 33.5848 25.9006 33.5749 25.2109 33.5802C24.1809 33.5883 23.1469 33.6307 22.136 33.6821C21.2375 33.7278 20.3129 33.7423 19.3889 33.7326C18.4632 33.7231 17.538 33.6892 16.6404 33.6379C15.9185 33.5968 15.1952 33.5896 14.4711 33.5996C13.7347 33.6099 12.9977 33.6383 12.2611 33.6666H12.2609H12.2567C11.3191 33.7025 10.3821 33.7385 9.44803 33.7374C9.10351 33.7375 8.75706 33.7371 8.40909 33.7367C6.70906 33.7347 4.97303 33.7327 3.25067 33.7884C2.15741 33.8237 1.06964 33.8824 0 33.9788V34.3228C1.07399 34.2259 2.16647 34.1677 3.26453 34.1329C4.98203 34.0785 6.71312 34.0814 8.40837 34.0843H8.40869H8.41402C8.76033 34.0849 9.10514 34.0855 9.44803 34.0856C10.3841 34.0844 11.3229 34.0462 12.2625 34.008H12.2628H12.2629C13.0011 33.978 13.7396 33.9479 14.4776 33.9358C15.1917 33.924 15.9052 33.9292 16.6172 33.968C17.5214 34.0171 18.453 34.0488 19.3852 34.0557C20.3176 34.0627 21.2504 34.0451 22.1567 33.9961C23.1619 33.9418 24.1901 33.8964 25.2146 33.8851C25.8971 33.8777 26.5779 33.8854 27.2493 33.9158C29.7309 34.0286 32.2129 34.1064 34.6965 34.1553C37.1781 34.204 39.6613 34.224 42.1472 34.2206C43.8008 34.2191 46.3185 34.2684 48 34.311V33.9776Z" fill="#B35920"/>
<path d="M48 35.2513C47.0744 35.2495 45.9425 35.144 44.8195 35.0393H44.8192C43.8017 34.9445 42.7916 34.8502 41.9489 34.8345C40.1759 34.8015 38.4025 34.7518 36.6377 34.6832C34.8913 34.6155 33.1419 34.5915 31.3916 34.5878C30.0398 34.5851 28.6875 34.5943 27.3357 34.6036H27.3218H27.3205H27.3204C26.0558 34.6122 24.7916 34.6208 23.5287 34.6196C22.3655 34.6209 21.2014 34.6159 20.0368 34.611C18.4094 34.6041 16.7814 34.5972 15.1539 34.6074C13.29 34.619 11.4273 34.6536 9.56746 34.7336C8.19021 34.7934 6.81444 34.8778 5.43897 34.9623C4.10866 35.044 2.77862 35.1256 1.44779 35.1849C0.965309 35.2063 0.482738 35.225 0 35.2395V35.5411C0.486003 35.5288 0.971866 35.5124 1.45762 35.4931C2.78672 35.44 4.1151 35.3644 5.44376 35.2887H5.44452L5.4538 35.2882H5.45549H5.45579H5.45593C6.82933 35.2101 8.20304 35.1318 9.57812 35.0784C11.4348 35.0056 13.2946 34.9797 15.1551 34.9739C16.7606 34.9688 18.3668 34.979 19.9722 34.9892H19.9779H19.9793C21.1631 34.9967 22.3464 35.0043 23.5287 35.0056C24.8156 35.0042 26.1037 34.9929 27.3924 34.9816C29.1617 34.9661 30.9321 34.9505 32.7011 34.9605C34.011 34.968 35.3202 34.989 36.6278 35.0354C38.3945 35.0981 40.1699 35.1416 41.9446 35.1693C42.7837 35.1823 43.7886 35.2653 44.8015 35.349H44.8016C45.9304 35.4422 47.0694 35.5362 48 35.5351V35.2513Z" fill="#B35920"/>
<path d="M48 37.3007C47.7384 37.3166 47.4647 37.3291 47.1304 37.3291C44.2137 37.3247 42.8144 37.17 40.5397 36.9186H40.5395L40.5389 36.9185L40.5368 36.9183C39.7619 36.8327 38.8852 36.7358 37.8125 36.6298C35.3052 36.3822 33.2281 36.2671 32.2512 36.2652C29.4722 36.2597 26.6927 36.3236 23.9143 36.4339C19.7478 36.5993 15.5836 36.8685 11.4269 37.1599C10.7478 37.208 10.0665 37.2178 9.38427 37.2092C8.65507 37.2 7.92487 37.1693 7.1953 37.1386C6.32257 37.1019 5.45076 37.0652 4.58271 37.0655C4.15419 37.0656 3.7271 37.0769 3.30092 37.0951C2.66145 37.1223 2.02396 37.1649 1.38668 37.2076H1.38626H1.38612L1.38584 37.2077H1.38554C0.923812 37.2385 0.462191 37.2694 0 37.2943V37.7359C0.468084 37.7112 0.935586 37.6805 1.4032 37.6497H1.40333C2.45983 37.5803 3.51693 37.5108 4.58271 37.5113C5.43956 37.5117 6.30004 37.5488 7.16146 37.586H7.16202C7.90125 37.618 8.64116 37.6498 9.38007 37.6586C10.0717 37.6668 10.7626 37.6542 11.451 37.6038C15.6037 37.2971 19.7639 37.0133 23.9268 36.8318C26.7009 36.7109 29.4761 36.6354 32.2512 36.6298C34.8908 36.6252 36.6175 36.8598 38.923 37.1728H38.9232L38.9236 37.1729L38.9244 37.173L38.9257 37.1732C40.0423 37.3248 41.2948 37.4948 42.8525 37.665C44.6405 37.7791 45.8058 37.78 46.7824 37.7791C47.1558 37.7787 47.5835 37.761 48 37.7374V37.3007Z" fill="#B35920"/>
<path d="M48 39.2509C47.576 39.2475 47.1653 39.2548 46.7045 39.267C45.9221 39.2878 45.086 39.1699 44.2538 39.0525L44.2537 39.0524C43.4968 38.9457 42.7431 38.8394 42.0356 38.8383C40.8249 38.8362 39.6154 38.8264 38.4064 38.797C37.1981 38.7677 35.9903 38.7189 34.7824 38.6395C33.2785 38.5409 31.77 38.5029 30.2593 38.5008C28.4792 38.4984 26.6964 38.544 24.9152 38.5895H24.9148H24.914H24.9139C23.1804 38.6339 21.4485 38.6781 19.7223 38.6781C17.4587 38.6818 15.1953 38.7399 12.9324 38.824C11.0522 38.8939 9.17232 38.9816 7.29285 39.0693L7.28983 39.0694H7.28912H7.28897L7.28862 39.0695C5.77868 39.14 4.269 39.2104 2.75962 39.2716C2.10205 39.2984 1.43466 39.2818 0.765306 39.2652H0.764719C0.509953 39.2588 0.254901 39.2525 0 39.2486V39.5468C0.257871 39.552 0.515896 39.5596 0.773637 39.5672C1.44317 39.587 2.11076 39.6066 2.7687 39.5829L12.9419 39.1792C15.2017 39.1036 17.4619 39.0517 19.7223 39.0553C21.4761 39.0552 23.2358 39.0109 24.9972 38.9664H24.9987C26.752 38.9222 28.5069 38.8778 30.2591 38.8772C31.7639 38.8768 33.2668 38.907 34.765 39.0003C35.9768 39.0758 37.1884 39.1205 38.4005 39.1458C39.6114 39.1713 40.8228 39.1774 42.0356 39.1754C42.7407 39.1743 43.4902 39.2653 44.2428 39.3567C45.0781 39.4581 45.9175 39.56 46.7045 39.537C47.1328 39.5246 47.5698 39.5294 48 39.5436V39.2509Z" fill="#B35920"/>
<path d="M48 40.6144L47.1108 40.6053C46.0572 40.6038 45.0555 40.4329 44.0555 40.2622C42.9573 40.075 41.8614 39.8879 40.7015 39.9262C39.7572 39.9574 38.814 39.9368 37.8736 39.8146C36.9016 39.6884 35.9147 39.6584 34.9212 39.6782C33.8724 39.6989 32.8166 39.7753 31.7644 39.8515H31.7634L31.7633 39.8516C30.5247 39.9412 29.291 40.0306 28.0796 40.0282C26.6952 40.0255 25.3112 40.011 23.9278 39.9965C21.4356 39.9704 18.9456 39.9443 16.4589 39.9871C13.8718 40.0316 11.2884 40.1515 8.71029 40.4186C7.48 40.5478 6.24628 40.6037 5.01197 40.6245C3.86076 40.644 2.7091 40.6331 1.5594 40.6222H1.55473C1.03601 40.6173 0.517698 40.6123 0 40.6102V41.0497C0.517034 41.0525 1.03469 41.0581 1.55273 41.0637H1.55329H1.56117C2.71213 41.0759 3.86505 41.0883 5.01751 41.0698C6.26166 41.05 7.5053 40.9942 8.74549 40.8648C11.3137 40.5933 13.8875 40.471 16.4651 40.4189C18.9449 40.3687 21.4284 40.3843 23.9139 40.3997H23.9246C25.3091 40.4084 26.6941 40.4171 28.0796 40.4143C29.2926 40.412 30.5276 40.3178 31.7676 40.2233C32.8207 40.1429 33.8773 40.0624 34.9272 40.0375C35.9071 40.0143 36.881 40.0399 37.8403 40.1608C38.7949 40.281 39.7521 40.2982 40.7102 40.2635C41.8654 40.2215 43.0376 40.4366 44.2081 40.6512C45.2802 40.8478 46.3511 41.0443 47.4064 41.0428C47.57 41.0427 47.7715 41.0459 48 41.0494V40.6144Z" fill="#B35920"/>
<path d="M48 42.8427V43.151C46.9789 43.1963 46.6933 43.1827 46.121 43.1557C45.894 43.145 45.6217 43.1321 45.2405 43.12C44.2616 43.0888 43.1249 43.1783 41.9809 43.2683L41.9807 43.2684H41.9806C40.7129 43.3682 39.4362 43.4687 38.3552 43.4066C33.947 43.1519 29.5534 42.986 25.1585 42.904C20.7642 42.822 16.3687 42.824 11.9556 42.9391C10.0778 42.9865 8.13628 43.0112 6.24011 43.0354H6.23975C4.04231 43.0633 1.90582 43.0905 0 43.1514V42.8458C1.89504 42.7772 4.01785 42.7427 6.2016 42.7069H6.20318H6.20469C8.10987 42.6758 10.0614 42.644 11.9484 42.5883C16.3654 42.4613 20.7654 42.4363 25.164 42.5183C29.5625 42.6002 33.9594 42.7889 38.3708 43.0549C39.4506 43.1205 40.7263 43.0235 41.9928 42.9271C43.1356 42.8401 44.2711 42.7537 45.2488 42.7878L45.346 42.7911H45.3461C46.592 42.8346 46.7665 42.8407 48 42.8427Z" fill="#B35920"/>
<path d="M0 45.0626C0.518564 45.0647 1.03775 45.0696 1.55733 45.0745H1.5594C2.7091 45.0854 3.86076 45.0964 5.01197 45.0769C6.24628 45.0561 7.48 45.0003 8.71029 44.871C11.2884 44.6038 13.8718 44.484 16.4589 44.4395C18.9456 44.3966 21.4356 44.4228 23.9278 44.4489C25.3112 44.4634 26.6952 44.4779 28.0796 44.4806C29.2913 44.4829 30.5252 44.3936 31.7641 44.3039H31.7642H31.7644C32.8166 44.2277 33.8724 44.1513 34.9212 44.1305C35.9147 44.1109 36.9016 44.1408 37.8736 44.267C38.814 44.3892 39.7572 44.4098 40.7015 44.3786C41.8599 44.3404 42.912 44.5255 43.9681 44.7113C44.9322 44.8811 45.8999 45.0513 46.9548 45.0527C47.1089 45.0528 47.3199 45.0557 47.5659 45.059H47.5665H47.5674C47.7023 45.0608 47.8477 45.0628 48 45.0645V45.4948C47.645 45.4868 47.3122 45.4742 47.0285 45.4543C45.9715 45.4557 44.9858 45.2681 44.0024 45.081C42.9317 44.8772 41.8639 44.6741 40.7102 44.7159C39.7521 44.7506 38.7949 44.7334 37.8403 44.6131C36.881 44.4923 35.9071 44.4666 34.9272 44.4899C33.8773 44.5147 32.8207 44.5953 31.7676 44.6756C30.5277 44.7702 29.2926 44.8644 28.0796 44.8668C26.6925 44.8694 25.3058 44.8608 23.9197 44.8522H23.9149C21.429 44.8366 18.9453 44.8212 16.4651 44.8713C13.8875 44.9233 11.3137 45.0456 8.7455 45.3172C7.50531 45.4466 6.26167 45.5024 5.01753 45.5222C3.8644 45.5407 2.71084 45.5284 1.55921 45.516H1.55727H1.55676C1.03737 45.5104 0.518375 45.5049 0 45.5022V45.0626Z" fill="#B35920"/>
<path d="M0 46.1745V46.4115C1.76788 46.3728 3.75972 46.3726 5.81039 46.3724C7.87262 46.3722 9.99427 46.372 12.0075 46.3327C16.4204 46.2435 20.816 46.242 25.2104 46.3055C29.6052 46.369 33.9989 46.4974 38.4069 46.6946C39.5084 46.7438 40.5461 46.7085 41.5895 46.6732H41.5896H41.5926C42.4965 46.6426 43.4047 46.6118 44.3622 46.6354C45.1208 46.6354 45.714 46.5782 46.2962 46.5221C46.8331 46.4703 47.3608 46.4195 48 46.4151V46.1668C47.3844 46.1701 46.8514 46.2231 46.323 46.2758C45.7069 46.337 45.0972 46.3978 44.3704 46.3781C43.4148 46.3524 42.5084 46.3807 41.6062 46.4089L41.6058 46.409H41.6035C40.5607 46.4416 39.5236 46.4741 38.4226 46.4223C34.0113 46.2163 29.6144 46.0702 25.2157 46.0069C20.8171 45.9434 16.4172 45.9627 12.0003 46.061C9.98448 46.1071 7.85974 46.1131 5.79483 46.1189H5.79002C3.74685 46.1247 1.76236 46.1303 0 46.1745Z" fill="#B35920"/>
<path d="M37.6715 47.9999C36.7649 47.8947 35.8458 47.87 34.9212 47.8884C34.161 47.9034 33.3971 47.9477 32.6335 47.9999H37.6715Z" fill="#B35920"/>
</g>
<defs>
<clipPath id="clip0_137_116">
<rect width="48" height="48" fill="white"/>
</clipPath>
</defs>
</svg>
