<svg width="130" height="55" viewBox="0 0 130 55" fill="none" xmlns="http://www.w3.org/2000/svg">
<path d="M0.828145 28.9842L20.4558 35.9626L16.6855 15.4753L0.828145 28.9842ZM129.496 2.24858C105.578 -3.44323 84.1887 11.1867 71.3731 25.7488C64.9479 33.0497 60.4681 40.5586 58.8213 45.8873C58.4062 47.2303 58.149 48.5041 58.113 49.6443C58.0778 50.7601 58.2492 51.9341 58.8906 52.8986C59.5903 53.9509 60.6796 54.5014 61.9134 54.591C63.0645 54.6746 64.3264 54.3643 65.6342 53.8185L64.2445 50.4888C63.192 50.9281 62.5314 51.0183 62.1747 50.9924C61.9007 50.9725 61.8968 50.9034 61.895 50.9007C61.8348 50.8101 61.6961 50.4936 61.7193 49.7581C61.7417 49.0469 61.9114 48.1083 62.2685 46.9526C63.7106 42.2864 67.8454 35.2187 74.0816 28.1325C86.589 13.9207 106.711 0.535173 128.661 5.75866L129.496 2.24858ZM65.6342 53.8185C70.3425 51.8534 76.6706 47.9818 81.7817 43.5793C84.3407 41.3751 86.6565 38.9853 88.3168 36.5766C89.9526 34.2034 91.1002 31.5973 90.952 29.0196C90.7946 26.2842 89.2123 24.0086 86.3245 22.3714C83.5149 20.7785 79.3737 19.7167 73.711 19.2251C62.3588 18.2395 44.1977 19.4957 16.4865 24.2683L17.0989 27.824C44.7345 23.0645 62.5233 21.8755 73.399 22.8196C78.8502 23.2929 82.3924 24.2897 84.545 25.5101C86.6193 26.6861 87.278 27.9786 87.3498 29.2268C87.4307 30.6328 86.7955 32.4261 85.3461 34.5289C83.9211 36.5963 81.849 38.7593 79.427 40.8455C74.5761 45.0239 68.5692 48.6838 64.2445 50.4888L65.6342 53.8185Z" fill="#B35920"/>
</svg>
