<svg width="24" height="25" viewBox="0 0 24 25" fill="none" xmlns="http://www.w3.org/2000/svg">
<rect width="24" height="24" transform="translate(0 0.5)" fill="white"/>
<path d="M12 22.5C17.5228 22.5 22 18.0228 22 12.5C22 6.97715 17.5228 2.5 12 2.5C6.47715 2.5 2 6.97715 2 12.5C2 18.0228 6.47715 22.5 12 22.5Z" fill="#B35920"/>
<path d="M9.10001 12.5V11.02C9.10001 9.10999 10.45 8.33999 12.1 9.28999L13.38 10.03L14.66 10.77C16.31 11.72 16.31 13.28 14.66 14.23L13.38 14.97L12.1 15.71C10.45 16.66 9.10001 15.88 9.10001 13.98V12.5Z" fill="white"/>
</svg>
